<svg width="900" height="900" viewBox="0 0 900 900" fill="none" xmlns="http://www.w3.org/2000/svg">
<rect width="900" height="900" fill="#1b1b1b"/>
<path d="M0 360h900v120H0z" fill="#e9e9e9"/>
<path d="M0 480h900v220H0z" fill="#111"/>
<rect x="75" y="90" width="210" height="270" fill="#d6d6d6"/>
<rect x="315" y="40" width="210" height="320" fill="#505050"/>
<rect x="555" y="120" width="265" height="240" fill="#f1f1f1"/>
<rect x="70" y="548" width="320" height="42" fill="#f1f1f1"/>
<rect x="70" y="620" width="520" height="42" fill="#f1f1f1"/>
<rect x="70" y="690" width="740" height="42" fill="#f1f1f1"/>
<circle cx="680" cy="625" r="72" fill="#777"/>
<path d="M560 820c28-110 73-174 128-174 62 0 105 70 118 174H560Z" fill="#252525"/>
<path d="M60 790c210-80 418-94 670 6" stroke="#643ABA" stroke-width="13" stroke-linecap="round"/>
</svg>
